<svg width="440" height="470" viewBox="0 0 440 470" fill="none" xmlns="http://www.w3.org/2000/svg">
<g filter="url(#filter0_d_3_10)">
<path d="M430.813 123.665L235.072 5.28751L229.065 37.76L233.039 50.977C234.387 55.4602 235.072 60.1165 235.072 64.798V99.1923L430.813 123.665Z" fill="#343536"/>
<path d="M235.072 99.1923L360.326 316.453L430.813 123.665L235.072 99.1923Z" fill="#494B4D"/>
<path d="M430.813 356.409V123.665L360.326 316.453L430.813 356.409Z" fill="#343536"/>
<path d="M235.072 455.788L430.813 356.409L360.326 316.453L235.072 455.788Z" fill="#494B4D"/>
<path d="M235.072 455.788L360.326 316.453L233.571 324.944V396.251C233.571 401.29 232.777 406.298 231.22 411.09L230.429 413.52C228.536 419.344 225.547 424.752 221.621 429.452L215.049 437.32L235.072 455.788Z" fill="#343536"/>
<path d="M233.571 324.944H183.013L173.436 315.069C169.874 311.397 165.395 308.745 160.463 307.387C155.879 306.126 151.054 306.024 146.421 307.09L146.253 307.129C142.433 308.009 138.827 309.645 135.65 311.941L129.445 316.423C127.123 318.101 124.595 319.473 121.923 320.505L121.505 320.666C114.358 323.427 106.459 323.545 99.2321 321C95.3864 319.646 91.8332 317.573 88.7618 314.891L81.3972 308.462H64.1415C58.9932 308.462 53.8784 307.634 48.9932 306.009L32.3414 300.471L28.9346 309.535C27.2229 314.089 26.5506 318.969 26.9671 323.816C27.5331 330.406 30.087 336.668 34.2905 341.774L36.7712 344.787C38.4813 346.864 40.4773 348.688 42.6994 350.205L46.6399 352.895C48.0955 353.889 49.7826 354.491 51.5385 354.644C56.6123 355.084 60.5955 359.179 60.8952 364.263L61.5569 375.486C61.7662 379.036 62.7865 382.491 64.5396 385.586L67.6667 391.106C72.3748 399.417 79.4557 406.135 88.0032 410.399L89.0918 410.942C94.9139 413.846 101.266 415.537 107.761 415.911L123.946 416.842L135.422 431.005C140.376 437.119 146.758 441.921 154.004 444.989L154.974 445.399C157.974 446.669 161.096 447.63 164.291 448.268L168.302 449.068C174.056 450.216 179.972 450.3 185.756 449.315L197.53 447.309L215.049 437.32L221.621 429.452C225.547 424.752 228.536 419.344 230.429 413.52L231.22 411.09C232.777 406.298 233.571 401.29 233.571 396.251V324.944Z" fill="#BB7575"/>
<path d="M360.326 316.453L235.072 99.1923V64.798C235.072 60.1165 234.387 55.4602 233.039 50.977L229.065 37.76L224.922 32.2481C220.727 26.6669 215.364 22.0681 209.209 18.7725L198.03 12.7875H184.521C175.994 12.7875 167.622 15.0588 160.264 19.3678L158.694 20.2873C151.981 24.2186 146.324 29.7225 142.211 36.3252L136.961 44.7523H129.43C125.126 44.7523 120.841 45.3312 116.692 46.4733L116.22 46.6033C111.061 48.0231 106.177 50.2951 101.768 53.3255L92.3844 59.7755C88.1046 62.7171 84.4437 66.4699 81.609 70.8213C80.1368 73.0811 78.8988 75.4851 77.914 77.996L77.8145 78.2498C75.8818 83.1777 74.8898 88.4242 74.8898 93.7176V110.18L58.5419 118.188C51.2077 121.78 44.9113 127.184 40.2486 133.889L38.9316 135.783C33.3375 143.827 30.3391 153.39 30.3391 163.188V165.255C30.3391 171.433 31.5318 177.553 33.8518 183.279L39.8499 198.083L27.3009 208.971C20.4561 214.91 15.4323 222.665 12.8103 231.339L11.0531 237.153C8.60324 245.258 8.34092 253.866 10.2927 262.106L11.3728 266.665C12.985 273.47 16.0649 279.841 20.397 285.332L32.3414 300.471L48.9932 306.009C53.8784 307.634 58.9932 308.462 64.1415 308.462H81.3972L88.7618 314.891C91.8332 317.573 95.3864 319.646 99.2321 321C106.459 323.545 114.358 323.427 121.505 320.666L121.923 320.505C124.595 319.473 127.123 318.101 129.445 316.423L135.65 311.941C138.827 309.645 142.433 308.009 146.253 307.129L146.421 307.09C151.054 306.024 155.879 306.126 160.463 307.387C165.395 308.745 169.874 311.397 173.436 315.069L183.013 324.944H233.571L360.326 316.453Z" fill="#F39797"/>
<path d="M198.03 12.7875L209.209 18.7725C215.364 22.0681 220.727 26.6669 224.922 32.2481L229.065 37.76L235.072 5.28751L198.03 12.7875Z" fill="#494B4D"/>
<path d="M215.049 437.32L197.53 447.309L235.072 455.788L215.049 437.32Z" fill="#494B4D"/>
<path d="M235.072 5.28751L430.813 123.665M235.072 5.28751L198.03 12.7875M235.072 5.28751L229.065 37.76M430.813 123.665V356.409M430.813 123.665L235.072 99.1923M430.813 123.665L360.326 316.453M430.813 356.409L235.072 455.788M430.813 356.409L360.326 316.453M235.072 455.788L360.326 316.453M235.072 455.788L197.53 447.309M235.072 455.788L215.049 437.32M360.326 316.453L235.072 99.1923M360.326 316.453L233.571 324.944M235.072 99.1923V64.798C235.072 60.1165 234.387 55.4602 233.039 50.977L229.065 37.76M235.072 99.1923L172.309 205.076M131.454 274L172.309 205.076M183.013 324.944H233.571M183.013 324.944L173.436 315.069C169.874 311.397 165.395 308.745 160.463 307.387C155.879 306.126 151.054 306.024 146.421 307.09L146.253 307.129C142.433 308.009 138.827 309.645 135.65 311.941L129.445 316.423C127.123 318.101 124.595 319.473 121.923 320.505L121.505 320.666C114.358 323.427 106.459 323.545 99.2321 321C95.3864 319.646 91.8332 317.573 88.7618 314.891L81.3972 308.462M183.013 324.944L184.515 339.428M81.3972 308.462H64.1415C58.9932 308.462 53.8784 307.634 48.9932 306.009L32.3414 300.471M81.3972 308.462L79.36 298.637C78.7201 295.551 78.5857 292.382 78.962 289.253C79.5735 284.169 81.5159 279.336 84.5929 275.242L85.3299 274.262C86.7091 272.427 88.2723 270.738 89.9951 269.221L95.9138 264.011M32.3414 300.471L20.397 285.332C16.0649 279.841 12.985 273.47 11.3728 266.665L10.2927 262.106C8.34092 253.866 8.60324 245.258 11.0531 237.153L12.8103 231.339C15.4323 222.665 20.4561 214.91 27.3009 208.971L39.8499 198.083M32.3414 300.471L28.9346 309.535C27.2229 314.089 26.5506 318.969 26.9671 323.816C27.5331 330.406 30.087 336.668 34.2905 341.774L36.7712 344.787C38.4813 346.864 40.4773 348.688 42.6994 350.205L46.6399 352.895C48.0955 353.889 49.7826 354.491 51.5385 354.644C56.6123 355.084 60.5955 359.179 60.8952 364.263L61.5569 375.486C61.7662 379.036 62.7865 382.491 64.5396 385.586L67.6667 391.106C72.3748 399.417 79.4557 406.135 88.0032 410.399L89.0918 410.942C94.9139 413.846 101.266 415.537 107.761 415.911L123.946 416.842M123.946 416.842V407.699C123.946 399.927 125.833 392.27 129.446 385.388L134.958 374.889M123.946 416.842L135.422 431.005C140.376 437.119 146.758 441.921 154.004 444.989L154.974 445.399C157.974 446.669 161.096 447.63 164.291 448.268L168.302 449.068C174.056 450.216 179.972 450.3 185.756 449.315L197.53 447.309M233.571 324.944V396.251C233.571 401.29 232.777 406.298 231.22 411.09L230.429 413.52C228.536 419.344 225.547 424.752 221.621 429.452L215.049 437.32M134.958 374.889L146.635 370.165C151.118 368.352 156.001 367.756 160.788 368.439C167.371 369.377 173.388 372.675 177.72 377.718L178.896 379.086C181.615 382.251 183.693 385.914 185.015 389.872L188.019 398.862M134.958 374.889C132.684 365.811 127.53 357.713 120.268 351.81L117.939 349.916M39.8499 198.083L54.3665 194.088M39.8499 198.083L33.8518 183.279C31.5318 177.553 30.3391 171.433 30.3391 165.255V163.188C30.3391 153.39 33.3375 143.827 38.9316 135.783L40.2486 133.889C44.9113 127.184 51.2077 121.78 58.5419 118.188L74.8898 110.18M74.8898 110.18V93.7176C74.8898 88.4242 75.8818 83.1777 77.8145 78.2498L77.914 77.996C78.8988 75.4851 80.1368 73.0811 81.609 70.8213C84.4437 66.4699 88.1046 62.7171 92.3844 59.7755L101.768 53.3255C106.177 50.2951 111.061 48.0231 116.22 46.6033L116.692 46.4733C120.841 45.3312 125.126 44.7523 129.43 44.7523H136.961M74.8898 110.18L90.3017 111.183C95.3426 111.511 100.294 112.677 104.951 114.634L105.145 114.715C112.852 117.953 119.497 123.288 124.325 130.112C127.385 134.437 129.652 139.271 131.02 144.389L134.958 159.126M134.958 159.126L134.644 161.321C133.858 166.809 132.128 172.119 129.53 177.016L128.951 178.105M134.958 159.126H140.076C143.965 159.126 147.815 158.338 151.391 156.809C154.755 155.37 157.813 153.304 160.403 150.72L160.898 150.226C164.254 146.877 166.835 142.833 168.458 138.379L169.998 134.154M215.049 437.32L197.53 447.309M136.961 44.7523V59.687C136.961 65.2295 138.761 70.622 142.092 75.0525C143.667 77.1487 145.556 78.99 147.691 80.5119L154.981 85.7072M136.961 44.7523L142.211 36.3252C146.324 29.7225 151.981 24.2186 158.694 20.2873L160.264 19.3678C167.622 15.0588 175.994 12.7875 184.521 12.7875H198.03M198.03 12.7875L209.209 18.7725C215.364 22.0681 220.727 26.6669 224.922 32.2481L229.065 37.76M172.309 205.076L146.38 214.09C138.883 216.697 130.856 217.404 123.018 216.147L106.926 213.566M106.926 213.566L103.531 217.981C95.2562 228.739 82.4546 235.043 68.883 235.043M106.926 213.566L93.9959 202.278C89.3426 198.215 85.7867 193.047 83.6559 187.248C82.1619 183.183 81.3972 178.885 81.3972 174.554V164.121M183.514 52.2441L186.693 55.4165C189.859 58.5756 192.158 62.4976 193.366 66.8038C194.458 70.6954 194.628 74.7878 193.863 78.7567L193.796 79.1073C192.96 83.4435 191.093 87.5151 188.353 90.9782L185.015 95.1967" stroke="white" stroke-width="10" stroke-linecap="round"/>
<g filter="url(#filter1_i_3_10)">
<path d="M203.977 179.694C208.534 178.261 212.245 177.09 215.11 176.178C217.974 175.136 220.318 174.29 222.141 173.639C224.224 172.858 225.787 172.142 226.828 171.491L231.516 169.147C233.339 168.235 235.683 167.064 238.547 165.631C241.412 164.069 245.123 162.116 249.68 159.772C248.638 164.72 247.857 169.407 247.336 173.834C246.946 178.131 246.62 181.972 246.36 185.358C245.969 189.264 245.774 192.845 245.774 196.1C245.644 198.834 245.448 202.48 245.188 207.038C245.058 211.595 244.862 216.543 244.602 221.881C244.342 227.22 244.081 232.689 243.821 238.288C243.56 243.886 243.365 249.16 243.235 254.108C243.235 258.926 243.3 263.092 243.43 266.608C243.69 270.123 244.146 272.532 244.797 273.834C245.448 275.397 246.295 276.894 247.336 278.327C248.248 279.629 249.289 281.126 250.461 282.819C251.763 284.381 253.326 285.944 255.149 287.506C252.154 288.157 249.355 288.743 246.75 289.264C244.146 289.655 241.868 289.98 239.914 290.241C237.571 290.631 235.487 290.957 233.664 291.217C231.711 291.347 229.042 291.673 225.657 292.194C222.792 292.584 219.146 293.105 214.719 293.756C210.292 294.277 204.823 294.863 198.313 295.514C201.698 293.431 204.368 291.413 206.321 289.459C208.404 287.506 209.967 285.814 211.008 284.381C212.18 282.689 212.896 281.061 213.157 279.498C213.287 278.457 213.482 275.657 213.743 271.1C214.133 266.413 214.459 260.944 214.719 254.694C215.11 248.314 215.435 241.543 215.696 234.381C216.086 227.09 216.347 220.319 216.477 214.069C216.607 207.819 216.672 202.48 216.672 198.053C216.672 193.626 216.477 190.957 216.086 190.045C215.565 189.134 214.784 188.092 213.743 186.92C212.831 185.879 211.594 184.772 210.032 183.6C208.599 182.428 206.581 181.126 203.977 179.694Z" fill="#343536"/>
</g>
</g>
<defs>
<filter id="filter0_d_3_10" x="0" y="0" width="439.813" height="469.062" filterUnits="userSpaceOnUse" color-interpolation-filters="sRGB">
<feFlood flood-opacity="0" result="BackgroundImageFix"/>
<feColorMatrix in="SourceAlpha" type="matrix" values="0 0 0 0 0 0 0 0 0 0 0 0 0 0 0 0 0 0 127 0" result="hardAlpha"/>
<feOffset dy="4"/>
<feGaussianBlur stdDeviation="2"/>
<feComposite in2="hardAlpha" operator="out"/>
<feColorMatrix type="matrix" values="0 0 0 0 0 0 0 0 0 0 0 0 0 0 0 0 0 0 0.25 0"/>
<feBlend mode="normal" in2="BackgroundImageFix" result="effect1_dropShadow_3_10"/>
<feBlend mode="normal" in="SourceGraphic" in2="effect1_dropShadow_3_10" result="shape"/>
</filter>
<filter id="filter1_i_3_10" x="198.313" y="159.772" width="56.8359" height="139.742" filterUnits="userSpaceOnUse" color-interpolation-filters="sRGB">
<feFlood flood-opacity="0" result="BackgroundImageFix"/>
<feBlend mode="normal" in="SourceGraphic" in2="BackgroundImageFix" result="shape"/>
<feColorMatrix in="SourceAlpha" type="matrix" values="0 0 0 0 0 0 0 0 0 0 0 0 0 0 0 0 0 0 127 0" result="hardAlpha"/>
<feOffset dy="4"/>
<feGaussianBlur stdDeviation="2"/>
<feComposite in2="hardAlpha" operator="arithmetic" k2="-1" k3="1"/>
<feColorMatrix type="matrix" values="0 0 0 0 0 0 0 0 0 0 0 0 0 0 0 0 0 0 0.25 0"/>
<feBlend mode="normal" in2="shape" result="effect1_innerShadow_3_10"/>
</filter>
</defs>
</svg>
